M48
; DRILL file {KiCad (5.1.4)-1} date 10/14/2020 3:51:01 AM
; FORMAT={-:-/ absolute / inch / decimal}
; #@! TF.CreationDate,2020-10-14T03:51:01-04:00
; #@! TF.GenerationSoftware,Kicad,Pcbnew,(5.1.4)-1
; #@! TF.FileFunction,NonPlated,1,2,NPTH
FMAT,2
INCH
T1C0.0689
T2C0.0748
T3C0.1181
T4C0.1200
T5C0.1570
T6C0.1614
T7C0.1654
%
G90
G05
T1
X8.5186Y-4.9287
X10.98Y-2.6336
X11.38Y-2.6336
X0.105Y-4.1336
X0.505Y-4.1336
X6.5443Y-5.2062
X6.9404Y-5.1505
X2.4164Y-4.9736
X2.8125Y-5.0293
X0.034Y-2.6336
X0.434Y-2.6336
X-0.27Y-4.8833
X0.13Y-4.8833
X10.5112Y-4.1336
X10.9112Y-4.1336
X10.98Y-3.3836
X11.38Y-3.3836
X8.1225Y-4.9844
X0.023Y-3.3838
X0.423Y-3.3838
X3.7159Y-5.1565
X4.112Y-5.2122
T2
X8.4039Y-4.1875
X8.8Y-4.1318
X4.3774Y-4.4919
X4.7735Y-4.5475
X2.5438Y-2.7194
X2.9399Y-2.7751
X5.41Y-3.0935
X5.8061Y-3.0379
X2.892Y-4.2831
X3.2881Y-4.3388
X1.8011Y-2.615
X2.1972Y-2.6707
X7.3711Y-3.5753
X7.7672Y-3.5196
X5.8857Y-3.784
X6.2818Y-3.7284
X9.0112Y-3.3836
X9.4112Y-3.3836
X8.3808Y-2.676
X8.7769Y-2.6203
X8.1138Y-3.4709
X8.5099Y-3.4152
X0.9715Y-2.6336
X1.3715Y-2.6336
X9.9487Y-2.6336
X10.3487Y-2.6336
X4.8299Y-5.313
X5.226Y-5.3687
X4.0292Y-2.9282
X4.4253Y-2.9839
X9.3862Y-4.1336
X9.7862Y-4.1336
X3.3677Y-3.5926
X3.7639Y-3.6483
X6.1758Y-4.5006
X6.5719Y-4.445
X3.2865Y-2.8238
X3.6826Y-2.8795
X1.3237Y-4.1336
X1.7237Y-4.1336
X9.1987Y-2.6336
X9.5987Y-2.6336
X12.5732Y-5.0711
X12.9732Y-5.0711
X11.8232Y-5.0711
X12.2232Y-5.0711
X1.8823Y-3.3838
X2.2785Y-3.4395
X11.0732Y-5.0711
X11.4732Y-5.0711
X4.1104Y-3.697
X4.5066Y-3.7526
X6.8954Y-2.8848
X7.2915Y-2.8291
X7.6612Y-4.2919
X8.0573Y-4.2362
X3.6347Y-4.3875
X4.0308Y-4.4432
X6.9185Y-4.3963
X7.3146Y-4.3406
X9.7612Y-3.3836
X10.1612Y-3.3836
X2.1493Y-4.1787
X2.5454Y-4.2344
X12.1982Y-2.4461
X12.5982Y-2.4461
X12.3857Y-3.1961
X12.7857Y-3.1961
X7.6381Y-2.7804
X8.0342Y-2.7247
X8.4129Y-5.7012
X8.809Y-5.6455
X2.625Y-3.4882
X3.0212Y-3.5439
X6.1527Y-2.9892
X6.5488Y-2.9335
X1.0542Y-3.3838
X1.4542Y-3.3838
X6.6284Y-3.6797
X7.0245Y-3.624
X11.8232Y-4.3211
X12.2232Y-4.3211
T3
X4.1816Y-3.909
X4.4431Y-3.8447
X7.0223Y-3.0689
X7.2559Y-2.9351
X8.2494Y-5.1685
X8.483Y-5.0347
X7.7881Y-4.476
X8.0217Y-4.3422
X11.08Y-2.8336
X11.33Y-2.7336
X3.7059Y-4.5995
X3.9674Y-4.5352
X0.123Y-3.5838
X0.373Y-3.4838
X7.0454Y-4.5804
X7.279Y-4.4466
X3.7871Y-5.3685
X4.0486Y-5.3042
X9.8612Y-3.5836
X10.1112Y-3.4836
X2.2205Y-4.3907
X2.482Y-4.3265
X12.2982Y-2.6461
X12.5482Y-2.5461
X12.4857Y-3.3961
X12.7357Y-3.2961
X7.765Y-2.9645
X7.9986Y-2.8307
X8.5398Y-5.8853
X8.7734Y-5.7515
X2.6962Y-3.7002
X2.9577Y-3.636
X6.2796Y-3.1733
X6.5132Y-3.0395
X1.1542Y-3.5838
X1.4042Y-3.4838
X0.205Y-4.3336
X0.455Y-4.2336
X6.7553Y-3.8638
X6.9889Y-3.73
X6.6712Y-5.3903
X6.9048Y-5.2565
X11.9232Y-4.5211
X12.1732Y-4.4211
X2.4876Y-5.1856
X2.7491Y-5.1214
X8.5308Y-4.3716
X8.7644Y-4.2378
X0.134Y-2.8336
X0.384Y-2.7336
X4.4486Y-4.7038
X4.7101Y-4.6396
X2.6149Y-2.9314
X2.8764Y-2.8672
X5.5369Y-3.2777
X5.7705Y-3.1438
X2.9632Y-4.4951
X3.2247Y-4.4308
X1.8722Y-2.827
X2.1337Y-2.7628
X7.498Y-3.7594
X7.7316Y-3.6256
X6.0126Y-3.9682
X6.2462Y-3.8344
X9.1112Y-3.5836
X9.3612Y-3.4836
X8.5077Y-2.8601
X8.7413Y-2.7263
X-0.17Y-5.0833
X0.08Y-4.9833
X8.2407Y-3.655
X8.4743Y-3.5212
X1.0715Y-2.8336
X1.3215Y-2.7336
X10.0487Y-2.8336
X10.2987Y-2.7336
X10.6112Y-4.3336
X10.8612Y-4.2336
X4.9011Y-5.525
X5.1626Y-5.4607
X4.1003Y-3.1402
X4.3618Y-3.0759
X9.4862Y-4.3336
X9.7362Y-4.2336
X11.08Y-3.5836
X11.33Y-3.4836
X3.4389Y-3.8046
X3.7004Y-3.7403
X6.3027Y-4.6848
X6.5363Y-4.551
X3.3576Y-3.0358
X3.6191Y-2.9715
X1.4237Y-4.3336
X1.6737Y-4.2336
X9.2987Y-2.8336
X9.5487Y-2.7336
X12.6732Y-5.2711
X12.9232Y-5.1711
X11.9232Y-5.2711
X12.1732Y-5.1711
X1.9535Y-3.5958
X2.215Y-3.5316
X11.1732Y-5.2711
X11.4232Y-5.1711
T4
X10.2412Y-4.4086
X11.1812Y-4.4086
X10.71Y-3.6586
X11.65Y-3.6586
X3.4103Y-5.3913
X4.3411Y-5.5221
X-0.165Y-4.4086
X0.775Y-4.4086
X6.3152Y-5.5161
X7.2461Y-5.3853
T5
X8.3206Y-4.9565
X11.18Y-2.6336
X0.223Y-3.3838
X3.4938Y-4.7971
X3.914Y-5.1843
X4.4246Y-4.9279
X-0.165Y-3.8086
X0.305Y-4.1336
X0.775Y-3.8086
X6.2317Y-4.9219
X6.7424Y-5.1783
X7.1626Y-4.7911
X2.6145Y-5.0015
X0.234Y-2.6336
X-0.07Y-4.8833
X10.2412Y-3.8086
X10.7112Y-4.1336
X11.1812Y-3.8086
X10.71Y-3.0586
X11.18Y-3.3836
X11.65Y-3.0586
T6
X7.0935Y-2.8569
X7.8592Y-4.2641
X3.8328Y-4.4153
X7.1165Y-4.3684
X9.9612Y-3.3836
X2.3474Y-4.2066
X12.3982Y-2.4461
X12.5857Y-3.1961
X7.8362Y-2.7526
X8.611Y-5.6733
X2.8231Y-3.5161
X6.3508Y-2.9613
X1.2542Y-3.3838
X6.8265Y-3.6518
X12.0232Y-4.3211
X8.6019Y-4.1597
X4.5755Y-4.5197
X2.7418Y-2.7473
X5.6081Y-3.0657
X3.0901Y-4.3109
X1.9991Y-2.6429
X7.5692Y-3.5474
X6.0838Y-3.7562
X9.2112Y-3.3836
X8.5789Y-2.6482
X8.3119Y-3.4431
X1.1715Y-2.6336
X10.1487Y-2.6336
X5.028Y-5.3408
X4.2272Y-2.956
X9.5862Y-4.1336
X3.5658Y-3.6204
X6.3738Y-4.4728
X3.4845Y-2.8516
X1.5237Y-4.1336
X9.3987Y-2.6336
X12.7732Y-5.0711
X12.0232Y-5.0711
X2.0804Y-3.4117
X11.2732Y-5.0711
X4.3085Y-3.7248
T7
X7.9337Y-5.2437
T0
M30
