M48
; DRILL file {KiCad (5.1.4)-1} date 10/14/2020 3:51:01 AM
; FORMAT={-:-/ absolute / inch / decimal}
; #@! TF.CreationDate,2020-10-14T03:51:01-04:00
; #@! TF.GenerationSoftware,Kicad,Pcbnew,(5.1.4)-1
; #@! TF.FileFunction,Plated,1,2,PTH
FMAT,2
INCH
T1C0.0320
T2C0.1654
%
G90
G05
T1
X6.0326Y-5.0275
X6.0654Y-5.2614
X0.8465Y-2.4855
X0.8465Y-2.7217
X3.9884Y-3.6679
X4.0213Y-3.434
X11.6982Y-4.073
X11.6982Y-4.3092
X-0.3769Y-3.8855
X-0.3769Y-4.1217
X8.2457Y-3.9592
X8.2786Y-4.1932
X5.7276Y-3.5558
X5.7604Y-3.7897
X3.5127Y-4.3584
X3.5456Y-4.1245
X0.9292Y-3.1357
X0.9292Y-3.3719
X1.1987Y-3.903
X1.1987Y-4.1392
X9.6362Y-3.1355
X9.6362Y-3.3717
X7.9643Y-4.7561
X7.9972Y-4.99
X9.0737Y-2.3855
X9.0737Y-2.6217
X2.2944Y-4.9445
X2.3273Y-4.7106
X10.855Y-2.3855
X10.855Y-2.6217
X11.9051Y-4.7461
X12.1413Y-4.7461
X2.0273Y-4.1496
X2.0602Y-3.9157
X6.7372Y-2.6565
X6.7701Y-2.8904
X4.7079Y-5.2839
X4.7408Y-5.05
X2.4217Y-2.6903
X2.4546Y-2.4564
X7.9557Y-3.2426
X7.9885Y-3.4766
X12.6551Y-4.7461
X12.8913Y-4.7461
X3.2457Y-3.5635
X3.2786Y-3.3296
X3.2404Y-5.0776
X3.2732Y-4.8437
X12.2607Y-2.948
X12.2607Y-3.1842
X8.4488Y-5.368
X8.6827Y-5.3351
X-0.102Y-3.1357
X-0.102Y-3.3719
X-0.091Y-2.3855
X-0.091Y-2.6217
X10.4981Y-3.1355
X10.4981Y-3.3717
X3.1644Y-2.7947
X3.1973Y-2.5608
X6.4703Y-3.4514
X6.5031Y-3.6853
X5.9945Y-2.7609
X6.0274Y-2.9948
X4.2554Y-4.4628
X4.2883Y-4.2289
X3.9071Y-2.8991
X3.94Y-2.6652
X-0.395Y-4.6352
X-0.395Y-4.8714
X7.4799Y-2.5521
X7.5128Y-2.7861
X0.9986Y-1.6862
X0.9986Y-1.7862
X0.9986Y-1.8862
X0.9986Y-1.9862
X6.7603Y-4.168
X6.7932Y-4.4019
X5.2518Y-2.8653
X5.2847Y-3.0992
X-0.3032Y-1.5366
X-0.3032Y-2.1358
X-0.2032Y-1.5366
X-0.2032Y-2.1358
X-0.1032Y-1.5366
X-0.1032Y-2.1358
X-0.0032Y-1.5366
X-0.0032Y-2.1358
X0.0968Y-1.5366
X0.0968Y-2.1358
X0.1968Y-1.5366
X0.1968Y-2.1358
X0.2968Y-1.5366
X0.2968Y-2.1358
X0.3968Y-1.5366
X0.3968Y-2.1358
X0.4968Y-1.5366
X0.4968Y-2.1358
X0.5968Y-1.5366
X0.5968Y-2.1358
X0.6968Y-1.5366
X0.6968Y-2.1358
X0.7968Y-1.5366
X0.7968Y-2.1358
X7.503Y-4.0636
X7.5359Y-4.2976
X2.503Y-3.4591
X2.5359Y-3.2252
X10.0293Y-3.8855
X10.0293Y-4.1217
X7.213Y-3.347
X7.2458Y-3.5809
X9.2612Y-3.9035
X9.2612Y-4.1397
X1.7603Y-3.3547
X1.7932Y-3.1208
X12.0732Y-2.458
X12.0732Y-2.6942
X8.8862Y-3.1355
X8.8862Y-3.3717
X2.77Y-4.254
X2.8029Y-4.0201
X8.2226Y-2.4478
X8.2555Y-2.6817
X11.1551Y-4.7461
X11.3913Y-4.7461
X9.8237Y-2.3855
X9.8237Y-2.6217
X6.0176Y-4.2724
X6.0505Y-4.5063
X1.6585Y-2.7171
X1.6913Y-2.4831
T2
X9.09Y-4.19
X4.9176Y-2.58
X12.7732Y-3.8521
X1.07Y-4.3
X3.0977Y-5.2453
X7.559Y-5.2397
X0.6702Y-2.56
X10.6527Y-2.6336
T0
M30
